HIERARCHY
ROOT Hips
{
	OFFSET 0.000000 71.427986 0.000000
	CHANNELS 6 Xposition Yposition Zposition Xrotation Yrotation Zrotation
	JOINT Pelvis
	{
		OFFSET 0.000000 0.000000 0.000000
		CHANNELS 3 Xrotation Yrotation Zrotation
		JOINT LeftUpLeg
		{
			OFFSET 6.797100 -2.508499 -1.318700
			CHANNELS 3 Xrotation Yrotation Zrotation
			JOINT LeftLeg
			{
				OFFSET 0.069008 -29.241863 0.690200
				CHANNELS 3 Xrotation Yrotation Zrotation
				JOINT LeftFoot
				{
					OFFSET -0.069008 -29.568123 -0.266800
					CHANNELS 3 Xrotation Yrotation Zrotation
					JOINT LeftToeBase
					{
						OFFSET 3.145500 -8.631000 16.059900
						CHANNELS 3 Xrotation Yrotation Zrotation
						End Site
						{
							OFFSET 0.000000 18.501587 0.000000
						}
					}
				}
			}
			JOINT Left_ShortSleeve
			{
				OFFSET 0.265923 -10.480953 1.153800
				CHANNELS 3 Xrotation Yrotation Zrotation
				End Site
				{
					OFFSET 1.725763 19.823879 0.000000
				}
			}
		}
		JOINT RightUpLeg
		{
			OFFSET -6.797100 -2.508499 -1.318700
			CHANNELS 3 Xrotation Yrotation Zrotation
			JOINT RightLeg
			{
				OFFSET -0.082453 -29.241932 0.688000
				CHANNELS 3 Xrotation Yrotation Zrotation
				JOINT RightFoot
				{
					OFFSET 0.082453 -29.568058 -0.264600
					CHANNELS 3 Xrotation Yrotation Zrotation
					JOINT RightToeBase
					{
						OFFSET -3.115300 -8.682800 16.113400
						CHANNELS 3 Xrotation Yrotation Zrotation
						End Site
						{
							OFFSET 0.000000 18.567114 0.000000
						}
					}
				}
			}
			JOINT Right_ShortSleeve
			{
				OFFSET -0.265923 -10.480953 1.153800
				CHANNELS 3 Xrotation Yrotation Zrotation
				End Site
				{
					OFFSET -1.725766 19.823910 0.000000
				}
			}
		}
	}
	JOINT Spine
	{
		OFFSET 0.000000 13.368103 0.470500
		CHANNELS 3 Xrotation Yrotation Zrotation
		JOINT Spine1
		{
			OFFSET 0.147000 13.837402 0.538800
			CHANNELS 3 Xrotation Yrotation Zrotation
			JOINT Spine2
			{
				OFFSET 0.168000 16.242897 -1.435500
				CHANNELS 3 Xrotation Yrotation Zrotation
				JOINT Neck
				{
					OFFSET 0.217200 18.631500 -1.679100
					CHANNELS 3 Xrotation Yrotation Zrotation
					JOINT Head
					{
						OFFSET 0.000000 6.599396 1.385900
						CHANNELS 3 Xrotation Yrotation Zrotation
						JOINT Hat
						{
							OFFSET -0.532200 27.220596 -10.096100
							CHANNELS 3 Xrotation Yrotation Zrotation
							End Site
							{
								OFFSET 0.000000 22.029861 0.000000
							}
						}
						JOINT HairD
						{
							OFFSET -10.777400 17.437393 -1.325900
							CHANNELS 3 Xrotation Yrotation Zrotation
							JOINT HairD1
							{
								OFFSET -3.290299 -11.051193 1.062200
								CHANNELS 3 Xrotation Yrotation Zrotation
								End Site
								{
									OFFSET 0.000000 11.579437 0.000000
								}
							}
						}
						JOINT HairB
						{
							OFFSET -10.777400 17.437393 1.467900
							CHANNELS 3 Xrotation Yrotation Zrotation
							JOINT HairB1
							{
								OFFSET -1.561200 -12.956299 3.590200
								CHANNELS 3 Xrotation Yrotation Zrotation
								End Site
								{
									OFFSET 0.000000 13.534866 0.000000
								}
							}
						}
						JOINT HairA
						{
							OFFSET 9.713100 17.437393 1.467900
							CHANNELS 3 Xrotation Yrotation Zrotation
							JOINT HairA1
							{
								OFFSET 1.561200 -12.956299 3.590200
								CHANNELS 3 Xrotation Yrotation Zrotation
								End Site
								{
									OFFSET 0.000000 13.534866 0.000000
								}
							}
						}
						JOINT HairC
						{
							OFFSET 9.713100 17.437393 -1.325900
							CHANNELS 3 Xrotation Yrotation Zrotation
							JOINT HairC1
							{
								OFFSET 3.290300 -11.051193 1.062200
								CHANNELS 3 Xrotation Yrotation Zrotation
								End Site
								{
									OFFSET 0.000000 11.579437 0.000000
								}
							}
						}
					}
				}
				JOINT LeftShoulder
				{
					OFFSET 5.101800 15.108002 -2.763700
					CHANNELS 3 Xrotation Yrotation Zrotation
					JOINT LeftArm
					{
						OFFSET 9.825497 2.506317 -1.597400
						CHANNELS 3 Xrotation Yrotation Zrotation
						JOINT LeftForeArm
						{
							OFFSET 21.966244 0.000000 0.000000
							CHANNELS 3 Xrotation Yrotation Zrotation
							JOINT LeftHand
							{
								OFFSET 33.879036 0.000000 0.000000
								CHANNELS 3 Xrotation Yrotation Zrotation
								JOINT LeftHandThumb1
								{
									OFFSET 6.715286 -2.359680 3.363841
									CHANNELS 3 Xrotation Yrotation Zrotation
									JOINT LeftHandThumb2
									{
										OFFSET 2.507072 -1.447464 1.447461
										CHANNELS 3 Xrotation Yrotation Zrotation
										JOINT LeftHandThumb3
										{
											OFFSET 2.898338 -1.673355 1.673357
											CHANNELS 3 Xrotation Yrotation Zrotation
											End Site
											{
												OFFSET -0.295959 3.727692 -0.131651
											}
										}
									}
								}
								JOINT LeftHandIndex1
								{
									OFFSET 14.190811 -0.254547 3.840278
									CHANNELS 3 Xrotation Yrotation Zrotation
									JOINT LeftHandIndex2
									{
										OFFSET 3.551727 0.000000 -0.000000
										CHANNELS 3 Xrotation Yrotation Zrotation
										JOINT LeftHandIndex3
										{
											OFFSET 2.894196 0.000000 0.000000
											CHANNELS 3 Xrotation Yrotation Zrotation
											End Site
											{
												OFFSET -1.000603 2.690872 0.366626
											}
										}
									}
								}
								JOINT LeftHandMiddle1
								{
									OFFSET 13.776489 0.000000 0.000000
									CHANNELS 3 Xrotation Yrotation Zrotation
									JOINT LeftHandMiddle2
									{
										OFFSET 3.438232 0.000000 0.000000
										CHANNELS 3 Xrotation Yrotation Zrotation
										JOINT LeftHandMiddle3
										{
											OFFSET 3.691551 0.000000 0.000000
											CHANNELS 3 Xrotation Yrotation Zrotation
											End Site
											{
												OFFSET -1.082298 3.499527 0.457670
											}
										}
									}
								}
								JOINT LeftHandRing1
								{
									OFFSET 13.966164 -0.268127 -3.067488
									CHANNELS 3 Xrotation Yrotation Zrotation
									JOINT LeftHandRing2
									{
										OFFSET 3.162567 0.000000 0.000000
										CHANNELS 3 Xrotation Yrotation Zrotation
										JOINT LeftHandRing3
										{
											OFFSET 3.324348 0.000000 0.000000
											CHANNELS 3 Xrotation Yrotation Zrotation
											End Site
											{
												OFFSET -0.861900 3.184998 0.405154
											}
										}
									}
								}
								JOINT LeftHandPinky1
								{
									OFFSET 13.131393 -0.168503 -5.746925
									CHANNELS 3 Xrotation Yrotation Zrotation
									JOINT LeftHandPinky2
									{
										OFFSET 2.849182 0.000000 0.000000
										CHANNELS 3 Xrotation Yrotation Zrotation
										JOINT LeftHandPinky3
										{
											OFFSET 2.805038 0.000000 0.000000
											CHANNELS 3 Xrotation Yrotation Zrotation
											End Site
											{
												OFFSET -0.882500 2.642609 0.325652
											}
										}
									}
								}
							}
							JOINT Left_Sleeve
							{
								OFFSET 6.592125 -0.646545 0.805568
								CHANNELS 3 Xrotation Yrotation Zrotation
								End Site
								{
									OFFSET -0.000179 20.275787 -0.000000
								}
							}
						}
					}
				}
				JOINT RightShoulder
				{
					OFFSET -5.731700 15.108002 -2.763700
					CHANNELS 3 Xrotation Yrotation Zrotation
					JOINT RightArm
					{
						OFFSET -9.825497 2.506317 -1.597400
						CHANNELS 3 Xrotation Yrotation Zrotation
						JOINT RightForeArm
						{
							OFFSET -21.966242 0.000000 0.000000
							CHANNELS 3 Xrotation Yrotation Zrotation
							JOINT RightHand
							{
								OFFSET -33.879032 0.000000 0.000000
								CHANNELS 3 Xrotation Yrotation Zrotation
								JOINT RightHandThumb1
								{
									OFFSET -6.715286 -2.359680 3.363841
									CHANNELS 3 Xrotation Yrotation Zrotation
									JOINT RightHandThumb2
									{
										OFFSET -2.507072 -1.447464 1.447461
										CHANNELS 3 Xrotation Yrotation Zrotation
										JOINT RightHandThumb3
										{
											OFFSET -2.898338 -1.673355 1.673357
											CHANNELS 3 Xrotation Yrotation Zrotation
											End Site
											{
												OFFSET 0.295959 3.727692 -0.131651
											}
										}
									}
								}
								JOINT RightHandIndex1
								{
									OFFSET -14.190811 -0.254547 3.840278
									CHANNELS 3 Xrotation Yrotation Zrotation
									JOINT RightHandIndex2
									{
										OFFSET -3.551727 0.000000 -0.000000
										CHANNELS 3 Xrotation Yrotation Zrotation
										JOINT RightHandIndex3
										{
											OFFSET -2.894196 0.000000 0.000000
											CHANNELS 3 Xrotation Yrotation Zrotation
											End Site
											{
												OFFSET 1.000603 2.690872 0.366626
											}
										}
									}
								}
								JOINT RightHandMiddle1
								{
									OFFSET -13.776489 0.000000 0.000000
									CHANNELS 3 Xrotation Yrotation Zrotation
									JOINT RightHandMiddle2
									{
										OFFSET -3.438232 0.000000 0.000000
										CHANNELS 3 Xrotation Yrotation Zrotation
										JOINT RightHandMiddle3
										{
											OFFSET -3.691551 0.000000 0.000000
											CHANNELS 3 Xrotation Yrotation Zrotation
											End Site
											{
												OFFSET 1.082298 3.499527 0.457670
											}
										}
									}
								}
								JOINT RightHandRing1
								{
									OFFSET -13.966164 -0.268127 -3.067488
									CHANNELS 3 Xrotation Yrotation Zrotation
									JOINT RightHandRing2
									{
										OFFSET -3.162567 0.000000 0.000000
										CHANNELS 3 Xrotation Yrotation Zrotation
										JOINT RightHandRing3
										{
											OFFSET -3.324348 0.000000 0.000000
											CHANNELS 3 Xrotation Yrotation Zrotation
											End Site
											{
												OFFSET 0.861900 3.184998 0.405154
											}
										}
									}
								}
								JOINT RightHandPinky1
								{
									OFFSET -13.131393 -0.168503 -5.746925
									CHANNELS 3 Xrotation Yrotation Zrotation
									JOINT RightHandPinky2
									{
										OFFSET -2.849182 0.000000 0.000000
										CHANNELS 3 Xrotation Yrotation Zrotation
										JOINT RightHandPinky3
										{
											OFFSET -2.805038 0.000000 0.000000
											CHANNELS 3 Xrotation Yrotation Zrotation
											End Site
											{
												OFFSET 0.882500 2.642609 0.325652
											}
										}
									}
								}
							}
							JOINT Right_Sleeve
							{
								OFFSET -6.592125 -0.646545 0.805568
								CHANNELS 3 Xrotation Yrotation Zrotation
								End Site
								{
									OFFSET 0.000179 20.275787 -0.000000
								}
							}
						}
					}
				}
				JOINT Bind_Right_JacketString
				{
					OFFSET -3.534800 11.969597 7.200700
					CHANNELS 3 Xrotation Yrotation Zrotation
					JOINT Bind_Right_JacketString1
					{
						OFFSET -0.319900 -6.102600 2.794100
						CHANNELS 3 Xrotation Yrotation Zrotation
						End Site
						{
							OFFSET 0.000000 6.719452 0.000000
						}
					}
				}
				JOINT Bind_Left_JacketString
				{
					OFFSET 2.904800 11.969597 7.200700
					CHANNELS 3 Xrotation Yrotation Zrotation
					JOINT Bind_Left_JacketString1
					{
						OFFSET 0.364800 -5.904503 3.186800
						CHANNELS 3 Xrotation Yrotation Zrotation
						End Site
						{
							OFFSET 0.000000 6.719513 0.000000
						}
					}
				}
				JOINT HairE
				{
					OFFSET 5.915200 17.612701 -11.592200
					CHANNELS 3 Xrotation Yrotation Zrotation
					JOINT HairE1
					{
						OFFSET 0.289200 -7.171898 -1.284500
						CHANNELS 3 Xrotation Yrotation Zrotation
						End Site
						{
							OFFSET 0.000000 7.291756 0.000000
						}
					}
				}
				JOINT HairF
				{
					OFFSET -0.864800 17.612701 -11.592200
					CHANNELS 3 Xrotation Yrotation Zrotation
					JOINT HairF1
					{
						OFFSET 0.000000 -14.087097 -2.127501
						CHANNELS 3 Xrotation Yrotation Zrotation
						End Site
						{
							OFFSET 0.000000 14.246841 0.000000
						}
					}
				}
				JOINT HairG
				{
					OFFSET -8.087700 17.612701 -11.592200
					CHANNELS 3 Xrotation Yrotation Zrotation
					JOINT HairG1
					{
						OFFSET -0.293600 -6.081398 -0.910100
						CHANNELS 3 Xrotation Yrotation Zrotation
						End Site
						{
							OFFSET 0.000000 6.156120 0.000000
						}
					}
				}
			}
		}
	}
	JOINT Pouch
	{
		OFFSET 0.000000 4.394501 10.847300
		CHANNELS 3 Xrotation Yrotation Zrotation
		End Site
		{
			OFFSET 0.000000 21.880577 0.000000
		}
	}
	JOINT Bag
	{
		OFFSET -13.229000 4.813004 -0.593300
		CHANNELS 3 Xrotation Yrotation Zrotation
		End Site
		{
			OFFSET 0.000000 21.880577 0.000000
		}
	}
	JOINT OccupyGuyFacialAnim_Joint
	{
		OFFSET 1.000000 -70.206398 -1.655000
		CHANNELS 3 Xrotation Yrotation Zrotation
		End Site
		{
			OFFSET 0.000000 21.880577 0.000000
		}
	}
}
MOTION
Frames: 4
Frame Time: 0.033333
0.075111 61.470520 -0.075146 19.148046 -24.717439 4.193810 -0.000000 -0.000000 0.000000 -71.181172 8.528056 8.909210 97.036197 -2.080482 -0.841486 41.519784 -0.020471 -0.036795 -0.000000 -0.000000 -0.000000 -0.000004 0.000000 0.000000 -38.461301 -19.777607 -7.097680 60.113246 -3.453359 -3.536197 -39.150641 1.075268 10.171872 0.000000 -0.000002 -0.000000 -0.000000 0.000000 0.000000 33.621900 -5.685049 -7.985727 7.929557 -1.684384 -2.985147 7.934315 -1.779728 -2.901411 -3.955039 4.326840 3.000656 -46.234193 25.082874 6.516463 -0.000000 -0.000000 -0.000000 -0.000000 -0.000000 -0.000000 -0.000000 -0.000000 -0.000000 -0.000000 -0.000000 -0.000000 -0.000000 0.000000 -0.000000 -0.000000 -0.000000 -0.000000 -0.000000 0.000000 -0.000000 -0.000000 -0.000000 -0.000000 -0.000000 -0.000000 -0.000000 0.599979 -4.416682 -8.632847 -23.045545 32.726151 -50.806256 -3.808484 -72.516412 -3.825283 -14.621799 -0.004417 8.495723 40.109903 -15.297127 -0.360452 5.639881 28.097890 11.338783 -0.000001 -0.000000 -0.000002 6.882206 2.840043 -61.140473 8.247935 7.640032 -89.897850 0.000002 -0.000001 -0.000004 -2.345587 4.688855 -62.655217 8.754152 9.897090 -87.051335 0.000002 -0.000001 -0.000001 -9.042575 10.045687 -60.766178 8.524112 9.508837 -66.892974 0.000001 0.000002 -0.000001 -17.947017 14.754998 -51.485843 8.868470 8.667038 -84.812009 -0.000000 0.000000 -0.000001 0.000001 -0.000001 0.000002 0.822254 9.037667 0.356094 -7.190249 -16.752738 69.289967 0.247993 52.412064 -0.118298 -17.047350 17.477044 0.764775 -5.346134 -8.022426 1.806949 5.643603 -28.047482 -11.314250 0.000001 0.000001 0.000002 6.986058 -14.673065 34.085144 1.982277 -4.767893 40.665628 -0.000000 0.000000 0.000000 4.063872 -10.960583 54.907662 2.075506 -6.514980 39.150668 0.000000 0.000000 -0.000001 5.330358 -9.253533 54.872282 3.276410 -6.510305 48.459639 -0.000001 -0.000001 0.000004 3.684532 -26.681910 70.977693 9.209861 -8.689981 86.837468 -0.000000 0.000001 -0.000003 -0.000000 -0.000001 -0.000002 -0.000001 0.000001 0.000001 -0.000002 -0.000000 -0.000000 -0.000001 0.000001 0.000000 -0.000001 0.000001 0.000000 -0.000001 0.000001 0.000001 -0.000002 -0.000000 -0.000000 -0.000001 0.000001 0.000000 -0.000001 0.000001 0.000000 -0.000001 0.000001 0.000001 -0.000002 -0.000000 -0.000000 -0.000000 -0.000000 0.000000 -0.000000 -0.000000 0.000000 -0.000000 -0.000000 0.000000 
0.319859 62.524620 8.945042 19.675297 -24.567994 6.665255 -0.000002 0.000002 -0.000001 -75.759912 3.910878 12.516712 87.329119 11.148324 -1.930156 38.359644 -13.249777 -15.836144 -0.000003 0.000001 -0.000000 -0.000001 -0.000000 -0.000001 -28.464926 -12.043780 -10.480602 52.904098 5.236968 -4.660145 -38.316477 1.412334 9.574158 0.000000 0.000002 -0.000000 0.000000 -0.000000 0.000001 31.828787 -5.622826 -10.221847 6.265613 0.715863 -3.647431 6.251590 0.577818 -3.653616 -4.954715 1.076268 5.499583 -41.140893 23.249832 2.220862 -0.000000 0.000000 -0.000000 -0.000000 0.000000 -0.000000 -0.000000 0.000000 -0.000000 -0.000000 0.000000 -0.000000 -0.000000 -0.000000 -0.000000 -0.000000 0.000000 -0.000000 -0.000000 -0.000000 -0.000000 -0.000000 0.000000 -0.000000 -0.000000 0.000000 -0.000000 0.217400 -3.963834 -8.284525 -19.290005 33.035672 -45.735285 38.080893 -69.132511 32.945766 -21.438996 -2.766866 11.526740 40.109907 -15.297131 -0.360449 5.639879 28.097892 11.338786 0.000002 0.000001 -0.000004 6.882204 2.840040 -61.140473 8.247933 7.640033 -89.897850 0.000003 -0.000003 -0.000002 -2.345587 4.688851 -62.655210 8.754156 9.897092 -87.051335 0.000001 -0.000001 0.000000 -9.042572 10.045685 -60.766171 8.524114 9.508833 -66.892974 -0.000001 0.000001 -0.000001 -17.947017 14.754990 -51.485836 8.868470 8.667039 -84.812016 -0.000001 -0.000001 0.000001 -0.000002 -0.000003 0.000001 0.824088 7.817782 1.569614 -11.539255 -13.004132 61.366818 8.669291 62.125420 -9.189191 -17.236464 5.013291 -1.586481 -5.346036 -8.022347 1.806851 5.643640 -28.047578 -11.314237 -0.000001 0.000003 -0.000003 7.039841 -14.647744 34.297990 2.000962 -4.760100 40.890536 -0.000000 0.000001 -0.000005 4.063885 -10.960558 54.907426 2.075705 -6.515140 39.151324 -0.000000 -0.000001 0.000003 5.377355 -9.263422 55.201469 3.276385 -6.510579 48.459294 0.000000 -0.000001 -0.000001 3.684711 -26.681601 70.977734 9.209853 -8.689944 86.837468 -0.000001 0.000002 -0.000001 -0.000001 -0.000000 -0.000001 0.000000 0.000001 0.000000 0.000002 -0.000001 0.000001 0.000000 0.000001 0.000000 0.000000 0.000001 0.000000 0.000000 0.000001 0.000000 0.000002 -0.000001 0.000001 0.000000 0.000001 0.000000 0.000000 0.000001 0.000000 0.000000 0.000001 0.000000 0.000002 -0.000001 0.000001 -0.000002 0.000002 -0.000001 -0.000002 0.000002 -0.000001 -0.000002 0.000002 -0.000001 
0.147704 65.156830 17.259533 17.865338 -22.027152 8.099891 -0.000002 0.000000 0.000000 -69.418163 6.261234 11.641157 66.103848 14.817078 -3.199246 21.154286 -0.572107 -4.383133 0.000001 -0.000000 0.000000 -0.000002 0.000000 0.000000 -10.490269 -13.698091 -14.319428 30.873517 8.443167 -4.343264 -30.237483 2.986268 12.410833 0.000001 0.000001 0.000000 0.000000 0.000003 -0.000002 30.999066 -6.618286 -12.263016 5.323683 1.881007 -3.220996 5.291946 1.762203 -3.260601 -4.683912 -0.970441 7.447211 -36.368182 21.031092 -0.776087 0.000001 0.000000 -0.000000 0.000001 0.000000 -0.000000 0.000001 0.000000 -0.000000 0.000001 0.000000 0.000000 0.000001 0.000000 0.000000 0.000001 0.000000 0.000000 0.000001 0.000000 0.000000 0.000001 0.000000 -0.000000 0.000001 0.000000 -0.000000 -0.123436 -4.121368 -8.573586 -17.683575 33.777317 -43.280552 55.380642 -62.628832 47.300515 -25.169030 -6.133550 11.956527 40.109900 -15.297129 -0.360453 5.639875 28.097892 11.338789 0.000000 -0.000003 -0.000001 6.882208 2.840037 -61.140466 8.247936 7.640033 -89.897850 -0.000000 0.000003 -0.000001 -2.345585 4.688850 -62.655204 8.754154 9.897090 -87.051335 0.000001 0.000000 -0.000003 -9.042574 10.045684 -60.766178 8.524115 9.508833 -66.892974 -0.000002 0.000001 0.000001 -17.947012 14.754988 -51.485843 8.868469 8.667040 -84.812009 0.000000 0.000001 -0.000001 0.000000 -0.000003 0.000001 0.644182 7.419407 3.080649 -9.798532 -12.354708 56.275305 14.923516 67.875114 -17.114009 -15.257908 4.342678 0.271008 -5.345655 -8.022277 1.806738 5.643569 -28.047649 -11.314251 -0.000000 0.000000 0.000001 7.185247 -14.578173 34.874055 2.051605 -4.738523 41.502343 0.000000 0.000000 0.000002 4.063945 -10.960629 54.907522 2.076052 -6.515632 39.151044 -0.000000 -0.000001 -0.000008 5.505412 -9.296122 56.093441 3.276373 -6.511401 48.459332 -0.000000 -0.000001 0.000002 3.685122 -26.680840 70.977898 9.209887 -8.689976 86.837536 -0.000001 0.000001 0.000002 -0.000001 0.000003 0.000006 -0.000001 0.000000 -0.000000 -0.000001 0.000000 0.000001 -0.000001 0.000000 -0.000000 -0.000001 0.000000 -0.000000 -0.000001 0.000000 -0.000000 -0.000001 0.000000 0.000001 -0.000001 0.000000 -0.000000 -0.000001 0.000000 -0.000000 -0.000001 0.000000 -0.000000 -0.000001 0.000000 0.000001 -0.000002 0.000000 0.000000 -0.000002 0.000000 0.000000 -0.000002 0.000000 0.000000 
0.076832 66.519135 26.306768 14.680074 -17.411279 6.325897 -0.000001 -0.000000 0.000000 -60.458888 6.348797 11.067253 51.145440 13.205777 -4.337532 4.755578 2.138006 -10.669944 0.000001 0.000001 -0.000000 -0.000004 -0.000000 0.000001 1.814851 -9.799389 -13.812653 25.339852 2.869068 -2.956208 -18.156719 0.669862 14.025775 -0.000001 0.000001 -0.000000 -0.000000 0.000001 -0.000000 30.607382 -6.452397 -11.768251 4.367243 2.005909 -2.174453 4.341943 1.908986 -2.205975 -2.896938 -2.462419 8.731460 -31.363249 17.173864 -2.101038 0.000001 0.000000 0.000000 0.000001 0.000000 0.000000 0.000001 0.000000 -0.000000 0.000001 0.000000 0.000000 -0.000001 -0.000000 0.000000 0.000001 0.000000 0.000000 -0.000001 -0.000000 0.000000 0.000001 0.000000 0.000000 0.000001 0.000000 0.000000 -0.470399 -5.291867 -9.943005 -17.210444 31.990127 -43.112058 63.503349 -58.115880 53.567183 -24.719686 -5.416412 7.946701 40.109907 -15.297126 -0.360450 5.639878 28.097892 11.338781 0.000001 -0.000003 0.000000 6.882204 2.840039 -61.140466 8.247930 7.640033 -89.897850 0.000001 0.000001 -0.000004 -2.345590 4.688852 -62.655210 8.754153 9.897089 -87.051335 -0.000001 0.000001 -0.000003 -9.042573 10.045683 -60.766178 8.524115 9.508839 -66.892974 0.000001 -0.000003 -0.000003 -17.947015 14.754993 -51.485840 8.868470 8.667038 -84.812009 0.000002 0.000001 0.000003 0.000001 0.000002 -0.000002 0.454405 6.579199 5.917231 -2.547806 -13.546361 53.769688 10.165942 70.005088 -13.930190 -12.730650 6.076207 0.262670 -5.345089 -8.021938 1.806575 5.643409 -28.047552 -11.314252 0.000001 -0.000001 0.000003 7.397798 -14.473203 35.721562 2.125706 -4.705832 42.402019 0.000000 -0.000000 0.000004 4.064053 -10.960701 54.907437 2.076653 -6.516457 39.151133 -0.000001 -0.000001 -0.000003 5.696607 -9.355674 57.407057 3.276434 -6.512706 48.459588 -0.000001 0.000001 0.000005 3.685911 -26.679550 70.978294 9.209883 -8.689953 86.837495 0.000002 0.000001 0.000001 0.000003 0.000001 0.000001 -0.000001 0.000001 -0.000000 -0.000001 0.000001 -0.000000 -0.000001 0.000001 0.000000 -0.000001 0.000001 0.000000 -0.000001 0.000001 -0.000000 -0.000001 0.000001 -0.000000 -0.000001 0.000001 0.000000 -0.000001 0.000001 0.000000 -0.000001 0.000001 -0.000000 -0.000001 0.000001 -0.000000 -0.000001 -0.000000 0.000000 -0.000001 -0.000000 0.000000 -0.000001 -0.000000 0.000000 
